HIERARCHY
ROOT hip
{
  OFFSET 0 0 0
  CHANNELS 6 Xposition Yposition Zposition Zrotation Yrotation Xrotation
  JOINT abdomen
  {
    OFFSET 0 20.6881 -0.73152
    CHANNELS 3 Zrotation Xrotation Yrotation
    JOINT chest
    {
      OFFSET 0 11.7043 -0.48768
      CHANNELS 3 Zrotation Xrotation Yrotation
      JOINT neck
      {
        OFFSET 0 22.1894 -2.19456
        CHANNELS 3 Zrotation Xrotation Yrotation
        JOINT head
        {
          OFFSET -0.24384 7.07133 1.2192
          CHANNELS 3 Zrotation Xrotation Yrotation
          JOINT leftEye
          {
            OFFSET 4.14528 8.04674 8.04672
            CHANNELS 3 Zrotation Xrotation Yrotation
            End Site
            {
              OFFSET 1 0 0
            }
          }
          JOINT rightEye
          {
            OFFSET -3.6576 8.04674 8.04672
            CHANNELS 3 Zrotation Xrotation Yrotation
            End Site
            {
              OFFSET 1 0 0
            }
          }
        }
      }
      JOINT rCollar
      {
        OFFSET -2.68224 19.2634 -4.8768
        CHANNELS 3 Zrotation Xrotation Yrotation
        JOINT rShldr
        {
          OFFSET -8.77824 -1.95073 1.46304
          CHANNELS 3 Zrotation Xrotation Yrotation
          JOINT rForeArm
          {
            OFFSET -28.1742 -1.7115 0.48768
            CHANNELS 3 Zrotation Xrotation Yrotation
            JOINT rHand
            {
              OFFSET -22.5879 0.773209 7.07136
              CHANNELS 3 Zrotation Xrotation Yrotation
              JOINT rThumb1
              {
                OFFSET -1.2192 -0.487915 3.41376
                CHANNELS 3 Zrotation Xrotation Yrotation
                JOINT rThumb2
                {
                  OFFSET -3.37035 -0.52449 3.41376
                  CHANNELS 3 Zrotation Xrotation Yrotation
                  End Site
                  {
                    OFFSET -1.78271 -1.18214 1.43049
                  }
                }
              }
              JOINT rIndex1
              {
                OFFSET -7.75947 0.938293 5.60832
                CHANNELS 3 Zrotation Xrotation Yrotation
                JOINT rIndex2
                {
                  OFFSET -2.54057 -0.884171 1.56538
                  CHANNELS 3 Zrotation Xrotation Yrotation
                  End Site
                  {
                    OFFSET -1.62519 -0.234802 1.16502
                  }
                }
              }
              JOINT rMid1
              {
                OFFSET -8.24714 1.18213 3.41376
                CHANNELS 3 Zrotation Xrotation Yrotation
                JOINT rMid2
                {
                  OFFSET -3.10165 -0.590103 1.0647
                  CHANNELS 3 Zrotation Xrotation Yrotation
                  End Site
                  {
                    OFFSET -2.48547 -0.328903 0.83742
                  }
                }
              }
              JOINT rRing1
              {
                OFFSET -8.82822 0.546677 1.51678
                CHANNELS 3 Zrotation Xrotation Yrotation
                JOINT rRing2
                {
                  OFFSET -2.60934 -0.819778 -0.0198488
                  CHANNELS 3 Zrotation Xrotation Yrotation
                  End Site
                  {
                    OFFSET -2.33842 -0.294052 0.168128
                  }
                }
              }
              JOINT rPinky1
              {
                OFFSET -8.27202 -0.0477905 -0.4584
                CHANNELS 3 Zrotation Xrotation Yrotation
                JOINT rPinky2
                {
                  OFFSET -1.82734 -0.647385 -0.700984
                  CHANNELS 3 Zrotation Xrotation Yrotation
                  End Site
                  {
                    OFFSET -1.69225 -0.51767 -0.607171
                  }
                }
              }
            }
          }
        }
      }
      JOINT lCollar
      {
        OFFSET 2.68224 19.2634 -4.8768
        CHANNELS 3 Zrotation Xrotation Yrotation
        JOINT lShldr
        {
          OFFSET 8.77824 -1.95073 1.46304
          CHANNELS 3 Zrotation Xrotation Yrotation
          JOINT lForeArm
          {
            OFFSET 28.1742 -1.7115 0.48768
            CHANNELS 3 Zrotation Xrotation Yrotation
            JOINT lHand
            {
              OFFSET 22.5879 0.773209 7.07136
              CHANNELS 3 Zrotation Xrotation Yrotation
              JOINT lThumb1
              {
                OFFSET 1.2192 -0.487915 3.41376
                CHANNELS 3 Zrotation Xrotation Yrotation
                JOINT lThumb2
                {
                  OFFSET 3.37035 -0.52449 3.41376
                  CHANNELS 3 Zrotation Xrotation Yrotation
                  End Site
                  {
                    OFFSET 1.78271 -1.18214 1.43049
                  }
                }
              }
              JOINT lIndex1
              {
                OFFSET 7.75947 0.938293 5.60832
                CHANNELS 3 Zrotation Xrotation Yrotation
                JOINT lIndex2
                {
                  OFFSET 2.54057 -0.884171 1.56538
                  CHANNELS 3 Zrotation Xrotation Yrotation
                  End Site
                  {
                    OFFSET 1.62519 -0.234802 1.16502
                  }
                }
              }
              JOINT lMid1
              {
                OFFSET 8.24714 1.18213 3.41376
                CHANNELS 3 Zrotation Xrotation Yrotation
                JOINT lMid2
                {
                  OFFSET 3.10165 -0.590103 1.0647
                  CHANNELS 3 Zrotation Xrotation Yrotation
                  End Site
                  {
                    OFFSET 2.48547 -0.328903 0.83742
                  }
                }
              }
              JOINT lRing1
              {
                OFFSET 8.82822 0.546677 1.51678
                CHANNELS 3 Zrotation Xrotation Yrotation
                JOINT lRing2
                {
                  OFFSET 2.60934 -0.819778 -0.0198488
                  CHANNELS 3 Zrotation Xrotation Yrotation
                  End Site
                  {
                    OFFSET 2.33842 -0.294052 0.168128
                  }
                }
              }
              JOINT lPinky1
              {
                OFFSET 8.27202 -0.0477905 -0.4584
                CHANNELS 3 Zrotation Xrotation Yrotation
                JOINT lPinky2
                {
                  OFFSET 1.82734 -0.647385 -0.700984
                  CHANNELS 3 Zrotation Xrotation Yrotation
                  End Site
                  {
                    OFFSET 1.69225 -0.51767 -0.607171
                  }
                }
              }
            }
          }
        }
      }
    }
  }
  JOINT rButtock
  {
    OFFSET -8.77824 4.35084 1.2192
    CHANNELS 3 Zrotation Xrotation Yrotation
    JOINT rThigh
    {
      OFFSET 0 -1.70687 -2.19456
      CHANNELS 3 Zrotation Xrotation Yrotation
      JOINT rShin
      {
        OFFSET 0 -36.8199 0.73152
        CHANNELS 3 Zrotation Xrotation Yrotation
        JOINT rFoot
        {
          OFFSET 0.73152 -45.1104 -5.12064
          CHANNELS 3 Zrotation Xrotation Yrotation
          End Site
          {
            OFFSET -1.1221 -3.69964 12.103
          }
        }
      }
    }
  }
  JOINT lButtock
  {
    OFFSET 8.77824 4.35084 1.2192
    CHANNELS 3 Zrotation Xrotation Yrotation
    JOINT lThigh
    {
      OFFSET 0 -1.70687 -2.19456
      CHANNELS 3 Zrotation Xrotation Yrotation
      JOINT lShin
      {
        OFFSET 0 -36.8199 0.73152
        CHANNELS 3 Zrotation Xrotation Yrotation
        JOINT lFoot
        {
          OFFSET -0.73152 -45.1104 -5.12064
          CHANNELS 3 Zrotation Xrotation Yrotation
          End Site
          {
            OFFSET 1.1221 -3.69964 12.103
          }
        }
      }
    }
  }
}
MOTION
Frames:	4
Frame Time:	0.00833333
49.4272 85.5269 246.816 0.0 0.0 0.0 2.34101 -0.00222425 0.0637216 0.646598 0.00594971 0.111938 -3.12086e-14 0.0 1.98785e-16 -9.30405e-14 3.18055e-15 5.684e-16 -0.0 0.0 0.0 -0.0 0.0 0.0 -1.54569e-14 7.29912e-17 2.48481e-16 -3.22581e-13 1.61513e-15 1.78906e-15 -5.59509e-12 1.72187e-12 7.95139e-14 -6.39984e-11 -1.39885e-12 3.14875e-13 -1.50977e-10 6.98464e-13 8.55569e-13 -2.60747e-10 1.19907e-12 1.46862e-12 -1.50973e-10 6.96144e-13 8.46028e-13 7.73091 5.47488 0.417314 -1.50979e-10 6.98231e-13 8.49208e-13 2.90554 0.965183 0.102902 -1.50971e-10 6.98231e-13 8.49208e-13 10.2786 0.731801 0.0259123 -1.5098e-10 7.00915e-13 8.52389e-13 2.22167 -0.733487 -0.20892 -1.55545e-14 7.29912e-17 -4.96962e-17 -3.26445e-13 1.62755e-15 3.97569e-16 -5.59261e-12 -1.62347e-12 1.11319e-13 -6.40358e-11 1.95045e-12 2.73528e-13 -1.51043e-10 7.07725e-13 8.42847e-13 -2.60835e-10 1.21815e-12 1.47021e-12 -1.51049e-10 7.08071e-13 8.52389e-13 -7.73091 5.47488 -0.417314 -1.51044e-10 7.07972e-13 8.52389e-13 -2.90554 0.965183 -0.102902 -1.51052e-10 7.0827e-13 8.46028e-13 -10.2786 0.731801 -0.0259123 -1.51044e-10 7.08866e-13 8.39666e-13 -2.22167 -0.733487 0.20892 -2.03217e-16 0.0 -3.88251e-19 2.21543 -8.02974 -0.231355 0.00607211 8.9737 0.152076 -0.477626 -0.951463 0.0348572 2.03217e-16 0.0 3.88251e-19 1.352 -1.92788 -0.00535699 0.00846697 -2.07867 0.0694636 0.423923 3.99897 -0.127299
49.9098 84.1548 234.464 -179.404 -4.1686 178.113 2.78249 0.793658 1.07834 -0.404855 -2.25853 0.346045 -1.49527 1.78493 -0.449066 2.34771 2.15695 -1.91225 -0.0 0.0 0.0 -0.0 0.0 0.0 -1.14566e-14 4.13263e-16 -1.8174e-15 22.6971 14.2596 -2.28117 -4.89192 -2.37525 7.46798 0.0202949 3.16394 0.442225 -1.90568e-10 -6.9681e-11 3.55197e-11 -3.29286e-10 -1.22058e-10 6.24217e-11 -1.90563e-10 -6.96817e-11 3.5511e-11 7.73091 5.47488 0.417314 -1.90569e-10 -6.96814e-11 3.55186e-11 2.90554 0.965183 0.102902 -1.90563e-10 -6.96792e-11 3.55172e-11 10.2786 0.731801 0.0259123 -1.9057e-10 -6.96772e-11 3.55237e-11 2.22167 -0.733487 -0.20892 -1.15535e-14 4.1333e-16 -2.08724e-15 -21.8711 9.47798 3.14088 5.88411 -3.11697 -8.65779 -0.0247227 3.48916 -0.487091 -1.46123e-11 1.43349e-10 4.39347e-11 -2.44513e-11 2.47779e-10 7.4822e-11 -1.46184e-11 1.4335e-10 4.39445e-11 -7.73091 5.47488 -0.417314 -1.46121e-11 1.43349e-10 4.39406e-11 -2.90554 0.965183 -0.102902 -1.46209e-11 1.4335e-10 4.3937e-11 -10.2786 0.731801 -0.0259123 -1.46117e-11 1.43352e-10 4.39326e-11 -2.22167 -0.733487 0.20892 -2.03217e-16 0.0 -3.88251e-19 5.1677 -9.17101 3.94303 0.053864 15.8292 0.346412 -2.70414 -8.30891 -9.80256 2.03217e-16 0.0 3.88251e-19 -0.580893 -4.82761 -6.46445 -0.0336383 7.08054 -0.123636 0.852408 -2.63909 3.24622
49.9858 84.173 234.555 -179.473 -3.9205 178.557 3.23114 1.66514 2.14047 -1.52168 -4.65873 0.590672 -3.05371 3.66309 -0.927589 5.01489 4.44293 -3.95018 -0.0 0.0 0.0 -0.0 0.0 0.0 -7.30666e-15 1.1251e-15 -4.70561e-15 48.1083 29.252 -5.21945 -9.39782 -4.75304 15.4061 -0.0116379 6.49202 0.911981 -2.39178e-10 -1.49253e-10 7.49669e-11 -4.13413e-10 -2.61442e-10 1.31797e-10 -2.39173e-10 -1.49252e-10 7.49591e-11 7.73091 5.47488 0.417314 -2.39179e-10 -1.49253e-10 7.49714e-11 2.90554 0.965183 0.102902 -2.39175e-10 -1.49249e-10 7.49685e-11 10.2786 0.731801 0.0259123 -2.3918e-10 -1.49247e-10 7.49786e-11 2.22167 -0.733487 -0.20892 -7.40389e-15 1.12525e-15 -4.94477e-15 -46.1655 19.4092 6.75645 11.088 -6.17141 -17.8859 0.0141297 7.18135 -1.00869 1.35861e-10 3.02536e-10 8.91126e-11 2.36238e-10 5.22896e-10 1.51631e-10 1.35855e-10 3.02536e-10 8.91227e-11 -7.73091 5.47488 -0.417314 1.35862e-10 3.02536e-10 8.91144e-11 -2.90554 0.965183 -0.102902 1.35853e-10 3.02537e-10 8.91139e-11 -10.2786 0.731801 -0.0259123 1.35863e-10 3.0254e-10 8.91118e-11 -2.22167 -0.733487 0.20892 -2.03217e-16 0.0 -3.88251e-19 8.47344 -10.2878 8.37517 0.0493924 23.0795 0.573126 -7.84659 -15.3417 -20.7698 2.03217e-16 0.0 3.88251e-19 -3.34158 -7.71978 -13.3776 -0.0087191 16.7669 -0.3403 2.16248 -9.60616 6.89591
50.0726 84.1836 234.597 -179.457 -3.6226 178.882 3.58087 2.38234 3.10995 -2.45188 -6.78694 0.819193 -4.40156 5.35348 -1.35244 7.4766 6.44195 -5.76924 -0.0 0.0 0.0 -0.0 0.0 0.0 -3.45604e-15 1.09381e-15 -5.94917e-15 72.5121 42.4571 -9.00684 -12.8604 -6.64258 22.5442 -0.0873528 9.48954 1.34303 -2.69748e-10 -2.1044e-10 1.04848e-10 -4.66364e-10 -3.68572e-10 1.84328e-10 -2.69743e-10 -2.10438e-10 1.04841e-10 7.73091 5.47488 0.417314 -2.69749e-10 -2.10441e-10 1.04857e-10 2.90554 0.965183 0.102902 -2.69746e-10 -2.10434e-10 1.04853e-10 10.2786 0.731801 0.0259123 -2.6975e-10 -2.10433e-10 1.04866e-10 2.22167 -0.733487 -0.20892 -3.55135e-15 1.09401e-15 -6.16232e-15 -69.0663 28.0687 10.546 14.9082 -8.4985 -26.2444 0.106349 10.4644 -1.48324 2.5825e-10 4.28633e-10 1.30118e-10 4.48316e-10 7.40899e-10 2.21526e-10 2.58243e-10 4.28633e-10 1.30129e-10 -7.73091 5.47488 -0.417314 2.58252e-10 4.28632e-10 1.30117e-10 -2.90554 0.965183 -0.102902 2.58242e-10 4.28633e-10 1.30119e-10 -10.2786 0.731801 -0.0259123 2.58253e-10 4.28638e-10 1.30119e-10 -2.22167 -0.733487 0.20892 -2.03217e-16 0.0 -3.88251e-19 11.5723 -11.2568 12.3776 -0.0108637 29.5386 0.803891 -14.7671 -20.281 -31.3019 2.03217e-16 0.0 3.88251e-19 -6.39058 -10.1095 -19.6305 0.0821561 25.398 -0.561151 4.11034 -15.6806 10.3724
